<?xml version="1.0" encoding="UTF-8"?>
<svg width="90px" height="86px" viewBox="0 0 90 86" version="1.1" xmlns="http://www.w3.org/2000/svg" xmlns:xlink="http://www.w3.org/1999/xlink">
    <title>小电视</title>
    <g id="页面-1" stroke="none" stroke-width="1" fill="none" fill-rule="evenodd">
        <path d="M88.0013663,29.4255745 C87.2344229,22.831085 81.8836508,17.7155117 75.2613663,17.2455745 C71.7413663,16.9755745 67.2613663,16.7155745 61.8913663,16.5355745 C62.3813663,15.9155745 62.8913663,15.2855745 63.3713663,14.6055745 C64.3113663,13.3655745 65.3013663,11.9955745 66.5113663,10.2755745 L67.6413663,8.62557446 C67.7863493,8.42872054 67.916699,8.22149799 68.0313663,8.00557446 C68.2932796,7.54348194 68.4726311,7.03926728 68.5613663,6.51557446 C68.6863503,5.89850623 68.6863503,5.26264269 68.5613663,4.64557446 C67.9105415,1.63612766 65.0516283,-0.364239952 62.0013663,0.055574459 C61.3759615,0.142292674 60.7741844,0.353084677 60.2313663,0.675574459 C59.7746083,0.938405827 59.3655217,1.27649392 59.0213663,1.67557446 C58.8613663,1.85557446 58.7113663,2.05557446 58.5713663,2.24557446 L57.4113663,3.88557446 C56.1713663,5.64557446 55.2513663,7.00557446 54.4113663,8.30557446 C53.4113663,9.91557446 52.4113663,11.4055745 51.5813663,12.8755745 C50.9913663,13.8755745 50.3313663,15.0455745 49.6913663,16.2755745 C48.0413663,16.2755745 46.3313663,16.2755745 44.5613663,16.2755745 C42.7913663,16.2755745 41.1813663,16.2755745 39.5613663,16.2755745 C38.9213663,15.0455745 38.2613663,13.8855745 37.6613663,12.8755745 C36.8113663,11.4255745 35.8913663,9.93557446 34.8313663,8.30557446 C33.9913663,7.00557446 33.0613663,5.63557446 31.8313663,3.87557446 L30.6313663,2.20557446 C30.5013663,2.02557446 30.3713663,1.84557446 30.2213663,1.67557446 C29.8701749,1.27978658 29.4583845,0.942253497 29.0013663,0.675574459 C28.4585899,0.354850166 27.856493,0.147347832 27.2313663,0.065574459 C24.182211,-0.358721568 21.3232858,1.64470846 20.6813663,4.65557446 C20.5513653,5.27549901 20.5513653,5.91564991 20.6813663,6.53557446 C20.7809463,7.0532075 20.9597114,7.55240066 21.2113663,8.01557446 C21.3270077,8.22773857 21.4573248,8.43156775 21.6013663,8.62557446 L22.7413663,10.2855745 C23.9713663,12.0455745 24.9413663,13.3755745 25.8713663,14.6155745 C26.3813663,15.2955745 26.8713663,15.9255745 27.3513663,16.5355745 C21.9413663,16.7255745 17.5113663,16.9755745 13.9813663,17.2455745 C7.33620556,17.7264547 1.98177605,22.8831951 1.25136627,29.5055745 C0.43399954,37.1017181 0.016756462,44.7355974 0.00136627247,52.3755745 C-0.0242210497,58.982163 0.309605501,65.5852522 1.00136627,72.1555745 C1.74721926,78.7217388 7.04331396,83.8375231 13.6313663,84.3555745 C20.9613663,84.9555745 31.6313663,85.5655745 44.5213663,85.5655745 C57.4113663,85.5655745 68.1813663,84.9455745 75.5213663,84.3455745 C82.0888077,83.8186697 87.371081,78.7289357 88.1413663,72.1855745 C88.8855569,65.6087139 89.2494955,58.9943799 89.2320739,52.3755745 C89.2515273,44.7085753 88.8408801,37.0464995 88.0013663,29.4255745 L88.0013663,29.4255745 Z" id="路径" fill="#07B3E7" fill-rule="nonzero"></path>
    </g>
</svg>