<?xml version="1.0" standalone="no"?>
<!DOCTYPE svg PUBLIC "-//W3C//DTD SVG 20010904//EN"
 "http://www.w3.org/TR/2001/REC-SVG-20010904/DTD/svg10.dtd">
<svg version="1.0" xmlns="http://www.w3.org/2000/svg"
 width="209.000000pt" height="209.000000pt" viewBox="0 0 209.000000 209.000000"
 preserveAspectRatio="xMidYMid meet">
<metadata>
Created by potrace 1.11, written by Peter Selinger 2001-2013
</metadata>
<g transform="translate(0.000000,209.000000) scale(0.100000,-0.100000)"
fill="#000000" stroke="none">
<path d="M551 2032 c-38 -20 -71 -73 -71 -112 0 -33 19 -68 91 -167 32 -45 59
-83 59 -85 0 -2 -10 -4 -22 -4 -128 -2 -320 -18 -357 -31 -84 -28 -152 -88
-191 -168 -38 -78 -55 -278 -55 -635 1 -450 18 -551 110 -646 98 -102 214
-117 895 -118 508 -1 747 12 839 46 74 28 151 105 178 178 30 81 47 280 46
550 0 210 -8 357 -28 535 -11 94 -91 200 -180 241 -67 31 -125 39 -347 46 -38
1 -68 6 -68 11 0 5 20 34 43 65 107 139 122 186 83 245 -45 68 -140 85 -193
35 -27 -25 -153 -213 -199 -295 l-28 -52 -117 0 -117 -1 -42 73 c-82 138 -182
278 -211 292 -38 20 -77 19 -118 -3z"/>
</g>
</svg>
